<?xml version="1.0" encoding="UTF-8" ?>
<!DOCTYPE svg PUBLIC "-//W3C//DTD SVG 1.1//EN" "http://www.w3.org/Graphics/SVG/1.1/DTD/svg11.dtd">
<svg width="485pt" height="518pt" viewBox="0 0 485 518" version="1.1" xmlns="http://www.w3.org/2000/svg">
    <g id="#7dc651ff">
        <path fill="#7dc651" opacity="1.00"
              d=" M 259.18 11.24 C 276.89 -2.45 302.63 -2.65 321.87 7.97 C 332.72 13.76 341.10 23.43 346.43 34.40 C 351.25 45.07 351.50 57.02 351.51 68.52 C 348.84 68.79 346.18 69.55 343.49 69.32 C 342.06 68.55 340.93 67.36 339.77 66.26 C 332.24 58.61 324.00 51.34 314.17 46.82 C 306.95 43.42 298.83 42.73 290.96 42.60 C 280.57 42.62 271.16 47.57 262.00 51.91 C 258.33 53.55 254.63 55.98 250.43 55.52 C 241.88 54.67 233.59 52.06 224.99 51.57 C 218.18 51.11 211.33 52.49 205.02 55.03 C 197.68 58.12 191.45 63.26 185.54 68.50 C 182.34 71.31 179.33 74.68 175.15 76.04 C 165.56 79.16 155.26 75.98 145.58 78.53 C 139.29 80.44 133.28 83.93 129.22 89.20 C 124.05 95.76 121.25 103.76 116.75 110.73 C 115.35 112.97 113.30 114.69 111.07 116.06 C 99.50 123.23 87.11 128.98 75.60 136.25 C 72.56 119.77 79.28 101.85 92.70 91.74 C 99.67 86.29 108.46 83.48 117.27 83.38 C 115.66 67.35 121.45 49.49 135.67 40.68 C 147.08 32.12 162.23 33.80 175.44 35.87 C 185.26 23.07 199.00 12.52 215.15 9.59 C 224.78 8.04 234.90 8.52 244.12 11.89 C 248.95 13.45 254.87 14.80 259.18 11.24 Z"/>
        <path fill="#7dc651" opacity="1.00"
              d=" M 400.00 168.76 C 413.40 165.10 428.38 167.28 440.01 174.95 C 447.23 179.70 452.76 186.78 456.44 194.55 C 462.64 209.09 459.37 225.84 452.47 239.52 C 447.37 251.20 441.93 263.53 431.42 271.39 C 421.01 278.96 407.30 282.37 394.64 279.46 C 382.88 277.17 372.48 271.00 362.27 265.03 C 355.99 271.45 350.59 278.93 342.93 283.84 C 330.98 291.25 315.58 289.83 303.91 297.82 C 294.96 304.69 286.56 313.09 275.39 316.23 C 267.48 318.07 259.06 318.85 251.11 316.80 C 237.67 313.28 226.87 304.03 216.69 295.04 C 201.72 296.83 185.80 301.20 171.31 294.76 C 159.09 290.33 151.53 279.17 144.70 268.79 C 156.92 262.65 170.65 260.48 184.15 259.41 C 188.30 249.59 193.03 239.90 199.61 231.46 C 207.99 225.13 217.43 219.74 227.92 218.05 C 236.27 216.51 244.88 218.19 252.70 221.23 C 264.13 226.09 272.29 235.87 280.09 245.15 C 289.45 241.49 298.80 237.80 308.10 234.00 C 309.15 223.12 310.73 212.12 315.00 201.98 C 320.86 187.48 333.65 176.29 348.32 171.26 C 361.52 166.70 375.88 167.45 389.24 170.88 C 393.04 171.89 396.43 169.61 400.00 168.76 Z"/>
    </g>
    <g id="#58ac4cff">
        <path fill="#58ac4c" opacity="1.00"
              d=" M 262.00 51.91 C 271.16 47.57 280.57 42.62 290.96 42.60 C 298.83 42.73 306.95 43.42 314.17 46.82 C 324.00 51.34 332.24 58.61 339.77 66.26 C 340.93 67.36 342.06 68.55 343.49 69.32 C 346.18 69.55 348.84 68.79 351.51 68.52 C 358.32 67.84 365.22 69.08 371.66 71.28 C 396.74 80.30 413.68 107.82 410.09 134.29 C 390.75 130.96 370.21 131.96 352.15 140.13 C 349.05 141.45 346.23 143.46 342.98 144.40 C 339.67 143.63 336.77 141.70 333.68 140.37 C 319.46 133.87 303.80 128.83 287.98 130.91 C 276.56 132.73 265.07 135.88 255.40 142.44 C 243.03 150.29 233.79 161.96 226.22 174.30 C 217.80 167.88 209.38 160.51 198.68 158.40 C 190.99 157.13 183.13 156.59 175.36 157.36 C 155.72 159.44 137.05 167.17 117.20 167.95 C 109.62 168.49 101.97 166.36 95.62 162.22 C 86.28 156.14 79.39 146.66 75.60 136.25 C 87.11 128.98 99.50 123.23 111.07 116.06 C 113.30 114.69 115.35 112.97 116.75 110.73 C 121.25 103.76 124.05 95.76 129.22 89.20 C 133.28 83.93 139.29 80.44 145.58 78.53 C 155.26 75.98 165.56 79.16 175.15 76.04 C 179.33 74.68 182.34 71.31 185.54 68.50 C 191.45 63.26 197.68 58.12 205.02 55.03 C 211.33 52.49 218.18 51.11 224.99 51.57 C 233.59 52.06 241.88 54.67 250.43 55.52 C 254.63 55.98 258.33 53.55 262.00 51.91 Z"/>
        <path fill="#58ac4c" opacity="1.00"
              d=" M 452.47 239.52 C 466.86 247.19 477.43 260.58 483.32 275.62 C 474.18 286.97 464.03 298.12 450.93 304.90 C 441.45 309.84 430.46 310.53 419.98 310.10 C 404.52 308.64 391.37 299.41 379.49 290.12 C 370.86 299.91 363.21 311.03 351.80 317.88 C 341.73 324.32 329.60 325.68 318.02 327.08 C 313.68 327.11 311.63 331.37 309.10 334.19 C 298.66 346.71 284.66 357.71 268.01 359.70 C 259.31 360.24 250.28 361.04 241.89 358.15 C 230.55 354.41 221.09 346.62 212.84 338.21 C 210.17 335.60 208.10 332.31 204.96 330.22 C 195.98 331.54 187.17 334.28 178.03 334.65 C 167.57 335.49 156.77 333.60 147.67 328.23 C 136.61 321.77 128.37 311.73 119.65 302.58 C 124.18 289.08 132.93 276.87 144.70 268.79 C 151.53 279.17 159.09 290.33 171.31 294.76 C 185.80 301.20 201.72 296.83 216.69 295.04 C 226.87 304.03 237.67 313.28 251.11 316.80 C 259.06 318.85 267.48 318.07 275.39 316.23 C 286.56 313.09 294.96 304.69 303.91 297.82 C 315.58 289.83 330.98 291.25 342.93 283.84 C 350.59 278.93 355.99 271.45 362.27 265.03 C 372.48 271.00 382.88 277.17 394.64 279.46 C 407.30 282.37 421.01 278.96 431.42 271.39 C 441.93 263.53 447.37 251.20 452.47 239.52 Z"/>
    </g>
    <g id="#44853bff">
        <path fill="#44853b" opacity="1.00"
              d=" M 255.40 142.44 C 265.07 135.88 276.56 132.73 287.98 130.91 C 303.80 128.83 319.46 133.87 333.68 140.37 C 336.77 141.70 339.67 143.63 342.98 144.40 C 346.23 143.46 349.05 141.45 352.15 140.13 C 370.21 131.96 390.75 130.96 410.09 134.29 C 407.08 148.22 400.26 161.62 389.24 170.88 C 375.88 167.45 361.52 166.70 348.32 171.26 C 333.65 176.29 320.86 187.48 315.00 201.98 C 310.73 212.12 309.15 223.12 308.10 234.00 C 298.80 237.80 289.45 241.49 280.09 245.15 C 272.29 235.87 264.13 226.09 252.70 221.23 C 244.88 218.19 236.27 216.51 227.92 218.05 C 217.43 219.74 207.99 225.13 199.61 231.46 C 183.04 233.60 164.85 236.16 149.62 227.49 C 132.48 219.13 121.99 201.41 117.93 183.31 C 117.33 178.21 117.44 173.07 117.20 167.95 C 137.05 167.17 155.72 159.44 175.36 157.36 C 183.13 156.59 190.99 157.13 198.68 158.40 C 209.38 160.51 217.80 167.88 226.22 174.30 C 233.79 161.96 243.03 150.29 255.40 142.44 Z"/>
        <path fill="#44853b" opacity="1.00"
              d=" M 483.32 275.62 L 483.76 276.57 C 485.88 292.66 485.34 310.31 476.42 324.42 C 471.53 331.40 465.81 338.01 458.53 342.56 C 433.83 358.34 397.71 352.94 379.30 329.92 C 378.13 331.27 376.97 332.63 375.77 333.96 C 369.85 340.49 364.54 347.53 358.90 354.30 C 351.89 359.99 343.55 364.11 334.82 366.37 C 327.66 366.93 320.38 366.92 313.37 368.52 C 307.42 372.47 304.50 379.39 300.43 385.02 C 288.25 398.33 268.82 403.64 251.27 400.80 C 245.63 399.34 239.93 398.06 234.26 396.74 C 222.20 391.34 213.51 380.82 205.85 370.42 C 204.44 370.67 203.03 370.94 201.62 371.17 C 190.23 373.04 178.95 375.55 167.48 376.94 C 159.57 375.23 151.90 372.27 144.86 368.30 C 137.34 361.74 130.27 354.44 125.50 345.58 C 118.21 332.70 115.48 316.93 119.65 302.58 C 128.37 311.73 136.61 321.77 147.67 328.23 C 156.77 333.60 167.57 335.49 178.03 334.65 C 187.17 334.28 195.98 331.54 204.96 330.22 C 208.10 332.31 210.17 335.60 212.84 338.21 C 221.09 346.62 230.55 354.41 241.89 358.15 C 250.28 361.04 259.31 360.24 268.01 359.70 C 284.66 357.71 298.66 346.71 309.10 334.19 C 311.63 331.37 313.68 327.11 318.02 327.08 C 329.60 325.68 341.73 324.32 351.80 317.88 C 363.21 311.03 370.86 299.91 379.49 290.12 C 391.37 299.41 404.52 308.64 419.98 310.10 C 430.46 310.53 441.45 309.84 450.93 304.90 C 464.03 298.12 474.18 286.97 483.32 275.62 Z"/>
    </g>
    <g id="#233d1bff">
        <path fill="#233d1b" opacity="1.00"
              d=" M 92.87 193.96 C 99.31 187.09 108.78 184.14 117.93 183.31 C 121.99 201.41 132.48 219.13 149.62 227.49 C 164.85 236.16 183.04 233.60 199.61 231.46 C 193.03 239.90 188.30 249.59 184.15 259.41 C 170.65 260.48 156.92 262.65 144.70 268.79 C 132.93 276.87 124.18 289.08 119.65 302.58 C 115.48 316.93 118.21 332.70 125.50 345.58 C 130.27 354.44 137.34 361.74 144.86 368.30 C 138.72 373.47 132.67 379.10 125.18 382.26 C 119.75 383.20 114.30 384.04 108.86 384.92 C 92.48 385.57 77.02 374.53 70.64 359.69 C 76.11 354.42 80.72 348.37 85.57 342.55 C 87.47 340.09 89.69 337.77 90.88 334.86 C 90.56 330.28 88.56 326.03 87.46 321.61 C 83.30 307.11 81.05 290.86 87.58 276.69 C 91.96 266.40 100.06 258.52 106.71 249.76 C 99.89 234.74 92.24 220.05 87.13 204.32 C 88.31 200.52 90.00 196.79 92.87 193.96 Z"/>
    </g>
    <g id="#325726ff">
        <path fill="#325726" opacity="1.00"
              d=" M 57.43 201.58 C 67.35 199.55 77.62 201.19 87.13 204.32 C 92.24 220.05 99.89 234.74 106.71 249.76 C 100.06 258.52 91.96 266.40 87.58 276.69 C 81.05 290.86 83.30 307.11 87.46 321.61 C 88.56 326.03 90.56 330.28 90.88 334.86 C 89.69 337.77 87.47 340.09 85.57 342.55 C 80.72 348.37 76.11 354.42 70.64 359.69 C 63.39 359.18 56.01 360.11 48.88 358.36 C 43.74 357.17 39.34 353.99 35.48 350.52 C 28.31 343.61 25.37 333.45 25.12 323.72 C 15.79 318.42 7.57 310.61 3.30 300.64 C 0.06 293.24 0.09 284.93 0.83 277.04 C 2.72 262.99 13.13 251.58 25.17 244.92 C 25.20 236.88 26.76 228.74 30.68 221.65 C 36.03 211.43 46.20 204.00 57.43 201.58 Z"/>
    </g>
    <g id="#78472dff">
        <path fill="#78472d" opacity="1.00"
              d=" M 358.90 354.30 C 364.54 347.53 369.85 340.49 375.77 333.96 C 375.12 351.64 377.24 369.41 374.90 387.03 C 374.46 394.16 369.10 399.74 363.58 403.68 C 354.97 409.94 344.22 412.37 335.44 418.20 C 331.97 429.60 328.44 441.95 319.02 450.00 C 306.05 460.75 290.73 468.05 276.49 476.88 C 282.21 490.61 288.15 504.25 293.83 518.00 L 226.21 518.00 C 225.71 498.74 226.15 479.46 225.99 460.19 C 211.57 453.95 196.29 448.96 183.67 439.27 C 181.00 437.34 178.86 434.54 175.64 433.48 C 156.71 427.35 138.29 419.65 120.63 410.50 C 111.46 405.59 109.75 394.29 108.86 384.92 C 114.30 384.04 119.75 383.20 125.18 382.26 C 126.01 386.50 127.11 390.68 128.27 394.84 C 140.52 402.52 154.41 406.89 167.51 412.81 C 167.48 400.85 167.53 388.90 167.48 376.94 C 178.95 375.55 190.23 373.04 201.62 371.17 C 201.10 382.80 200.78 394.44 200.41 406.06 C 202.49 411.45 206.37 416.07 209.26 421.09 C 217.43 417.58 225.67 414.25 233.95 411.01 C 234.14 406.26 234.32 401.50 234.26 396.74 C 239.93 398.06 245.63 399.34 251.27 400.80 C 251.23 407.99 251.25 415.18 251.26 422.37 C 245.65 425.16 239.98 427.80 234.40 430.66 C 242.37 434.29 250.44 437.70 258.37 441.41 C 268.60 437.37 279.22 434.21 289.00 429.10 C 292.33 427.20 296.31 425.46 297.75 421.60 C 303.16 410.14 300.28 397.18 300.43 385.02 C 304.50 379.39 307.42 372.47 313.37 368.52 C 320.38 366.92 327.66 366.93 334.82 366.37 C 334.39 377.58 333.99 388.78 333.50 399.98 C 341.78 395.93 350.26 392.12 357.77 386.70 C 360.16 376.05 359.09 365.09 358.90 354.30 Z"/>
    </g>
</svg>
