<?xml version="1.0" encoding="UTF-8" ?>
<!DOCTYPE svg PUBLIC "-//W3C//DTD SVG 1.1//EN" "http://www.w3.org/Graphics/SVG/1.1/DTD/svg11.dtd">
<svg width="1022pt" height="1022pt" viewBox="0 0 1022 1022" version="1.1" xmlns="http://www.w3.org/2000/svg">
    <g id="#00b4ffff">
        <path fill="#00b4ff" opacity="1.00"
              d=" M 503.69 0.00 L 518.11 0.00 C 606.18 1.19 693.88 25.43 769.73 70.29 C 833.08 107.49 888.22 158.55 930.23 218.80 C 966.06 270.04 992.36 327.93 1007.23 388.67 C 1016.52 426.28 1021.33 464.95 1022.00 503.67 L 1022.00 518.18 C 1020.80 606.22 996.56 693.89 951.72 769.71 C 914.03 833.89 862.13 889.65 800.84 931.87 C 729.82 981.05 646.08 1011.57 560.08 1019.67 C 546.19 1021.02 532.25 1021.68 518.30 1022.00 L 503.85 1022.00 C 444.53 1021.08 385.33 1010.05 329.87 988.93 C 264.44 964.18 204.28 925.68 154.24 876.80 C 98.06 822.11 54.65 754.33 28.75 680.31 C 10.43 628.34 0.89 573.37 0.00 518.30 L 0.00 503.86 C 0.38 486.50 1.34 469.15 3.42 451.90 C 12.36 373.25 40.12 296.83 83.69 230.73 C 131.03 158.53 196.97 98.63 273.43 58.51 C 344.12 21.14 423.77 1.16 503.69 0.00 M 500.40 65.54 C 414.29 67.36 328.97 95.09 258.24 144.24 C 193.18 189.10 140.33 251.50 106.98 323.17 C 75.55 390.19 61.58 465.20 66.31 539.05 C 69.29 587.43 80.28 635.31 98.77 680.13 C 128.56 752.71 178.02 817.03 240.32 864.70 C 300.52 911.04 372.80 941.58 448.05 952.14 C 507.48 960.58 568.63 956.99 626.60 941.36 C 703.49 920.82 774.43 878.92 829.89 821.89 C 887.62 762.88 928.57 687.56 946.18 606.87 C 960.05 543.94 960.05 477.99 946.17 415.06 C 930.04 341.32 894.48 272.01 844.33 215.63 C 792.05 156.55 723.89 111.60 648.83 87.25 C 601.07 71.62 550.63 64.36 500.40 65.54 Z"/>
        <path fill="#00b4ff" opacity="1.00"
              d=" M 415.90 143.11 C 465.39 130.15 517.56 127.12 568.10 135.35 C 580.93 137.38 593.64 140.08 606.20 143.40 C 606.20 164.17 606.20 184.93 606.20 205.70 C 569.07 220.75 533.32 239.43 500.55 262.52 C 449.02 298.62 404.94 346.42 377.20 403.19 C 354.08 369.98 336.75 332.76 326.21 293.70 C 352.64 271.23 383.19 253.66 415.90 242.10 C 415.91 209.10 415.90 176.10 415.90 143.11 Z"/>
        <path fill="#00b4ff" opacity="1.00"
              d=" M 671.31 448.91 C 711.62 445.50 752.50 449.12 791.60 459.50 C 797.85 493.63 797.70 528.89 791.40 563.01 C 819.96 579.51 848.53 596.00 877.09 612.50 C 868.61 643.46 856.26 673.38 840.23 701.20 C 824.05 728.84 804.39 754.41 781.90 777.19 C 763.89 766.80 745.89 756.40 727.90 746.00 C 733.88 702.95 735.35 659.15 730.44 615.92 C 723.89 556.74 704.70 498.46 671.31 448.91 Z"/>
        <path fill="#00b4ff" opacity="1.00"
              d=" M 145.00 612.39 C 163.01 602.00 181.00 591.60 199.00 581.21 C 230.13 605.46 263.64 626.82 299.43 643.53 C 356.90 670.61 420.93 685.22 484.59 680.81 C 467.40 717.43 443.85 751.04 415.30 779.70 C 382.65 768.00 352.18 750.32 325.80 727.80 C 297.20 744.29 268.61 760.81 240.00 777.29 C 216.83 753.81 196.62 727.38 180.34 698.68 C 165.11 671.50 153.24 642.44 145.00 612.39 Z"/>
    </g>
    <g id="#050a14ff">
        <path fill="#050a14" opacity="1.00"
              d=" M 537.42 341.09 C 554.59 304.47 578.15 270.86 606.70 242.21 C 639.35 253.89 669.81 271.59 696.20 294.08 C 724.81 277.62 753.38 261.08 781.99 244.62 C 805.55 268.45 826.02 295.37 842.44 324.59 C 857.34 351.36 869.00 379.94 876.99 409.52 C 858.99 419.90 841.00 430.31 823.00 440.69 C 793.83 417.98 762.60 397.80 729.34 381.60 C 670.09 352.49 603.60 336.50 537.42 341.09 Z"/>
        <path fill="#050a14" opacity="1.00"
              d=" M 181.79 320.76 C 197.93 293.10 217.65 267.56 240.19 244.82 C 258.21 255.19 276.20 265.60 294.20 276.01 C 285.47 338.57 286.42 403.09 302.42 464.44 C 312.43 502.98 328.56 540.00 350.79 573.09 C 310.48 576.50 269.60 572.89 230.51 562.49 C 224.28 528.36 224.37 493.11 230.69 459.00 C 202.11 442.50 173.51 426.01 144.92 409.51 C 153.34 378.51 165.79 348.61 181.79 320.76 Z"/>
        <path fill="#050a14" opacity="1.00"
              d=" M 499.53 437.69 C 513.96 435.44 529.05 437.52 542.29 443.72 C 557.32 450.68 569.87 462.85 577.29 477.66 C 584.79 492.44 587.02 509.78 583.67 526.00 C 580.53 541.49 572.20 555.85 560.40 566.35 C 549.01 576.56 534.40 583.11 519.19 584.74 C 504.77 586.35 489.88 583.65 477.00 576.95 C 462.49 569.50 450.59 557.11 443.73 542.32 C 437.00 527.98 435.13 511.46 438.34 495.97 C 441.52 480.27 450.04 465.75 462.09 455.22 C 472.57 445.98 485.72 439.81 499.53 437.69 Z"/>
        <path fill="#050a14" opacity="1.00"
              d=" M 644.80 618.72 C 667.93 651.92 685.25 689.14 695.79 728.20 C 669.37 750.67 638.80 768.24 606.10 779.80 C 606.09 812.80 606.11 845.80 606.09 878.79 C 573.17 887.38 539.10 891.64 505.08 891.13 C 474.96 890.58 444.90 886.34 415.80 878.49 C 415.79 857.73 415.80 836.97 415.80 816.21 C 449.79 802.41 482.65 785.61 513.11 765.11 C 544.75 743.87 573.84 718.64 598.42 689.46 C 616.66 667.87 632.30 644.08 644.80 618.72 Z"/>
    </g>
</svg>
